<mxfile host="app.diagrams.net" modified="2021-12-11T00:30:38.216Z" agent="5.0 (X11)" etag="iS03V6Ga1PgdtnqoH4HW" version="15.9.4" type="github">
  <diagram name="Page-1" id="7e0a89b8-554c-2b80-1dc8-d5c74ca68de4">
    <mxGraphModel dx="1178" dy="656" grid="1" gridSize="10" guides="1" tooltips="1" connect="1" arrows="1" fold="1" page="1" pageScale="1" pageWidth="1100" pageHeight="850" background="none" math="0" shadow="0">
      <root>
        <mxCell id="0" />
        <mxCell id="1" parent="0" />
        <mxCell id="1OdC3Qsrmz_PHcyCNAHJ-17" style="edgeStyle=orthogonalEdgeStyle;rounded=0;orthogonalLoop=1;jettySize=auto;html=1;entryX=1;entryY=1;entryDx=0;entryDy=0;entryPerimeter=0;exitX=1;exitY=0;exitDx=0;exitDy=0;exitPerimeter=0;" edge="1" parent="1" source="1OdC3Qsrmz_PHcyCNAHJ-2" target="1OdC3Qsrmz_PHcyCNAHJ-7">
          <mxGeometry relative="1" as="geometry" />
        </mxCell>
        <mxCell id="1OdC3Qsrmz_PHcyCNAHJ-2" value="" style="verticalLabelPosition=bottom;shadow=0;dashed=0;align=center;html=1;verticalAlign=top;shape=mxgraph.electrical.transistors.nmos;pointerEvents=1;" vertex="1" parent="1">
          <mxGeometry x="430" y="580" width="60" height="100" as="geometry" />
        </mxCell>
        <mxCell id="1OdC3Qsrmz_PHcyCNAHJ-16" style="edgeStyle=orthogonalEdgeStyle;rounded=0;orthogonalLoop=1;jettySize=auto;html=1;entryX=1;entryY=1;entryDx=0;entryDy=0;entryPerimeter=0;exitX=1;exitY=0;exitDx=0;exitDy=0;exitPerimeter=0;" edge="1" parent="1" source="1OdC3Qsrmz_PHcyCNAHJ-3" target="1OdC3Qsrmz_PHcyCNAHJ-6">
          <mxGeometry relative="1" as="geometry" />
        </mxCell>
        <mxCell id="1OdC3Qsrmz_PHcyCNAHJ-3" value="" style="verticalLabelPosition=bottom;shadow=0;dashed=0;align=center;html=1;verticalAlign=top;shape=mxgraph.electrical.transistors.nmos;pointerEvents=1;" vertex="1" parent="1">
          <mxGeometry x="560" y="580" width="60" height="100" as="geometry" />
        </mxCell>
        <mxCell id="1OdC3Qsrmz_PHcyCNAHJ-23" style="edgeStyle=orthogonalEdgeStyle;rounded=0;orthogonalLoop=1;jettySize=auto;html=1;" edge="1" parent="1" source="1OdC3Qsrmz_PHcyCNAHJ-4">
          <mxGeometry relative="1" as="geometry">
            <mxPoint x="650" y="380" as="targetPoint" />
            <Array as="points">
              <mxPoint x="550" y="380" />
            </Array>
          </mxGeometry>
        </mxCell>
        <mxCell id="1OdC3Qsrmz_PHcyCNAHJ-4" value="" style="verticalLabelPosition=bottom;shadow=0;dashed=0;align=center;html=1;verticalAlign=top;shape=mxgraph.electrical.transistors.pmos;pointerEvents=1;" vertex="1" parent="1">
          <mxGeometry x="490" y="260" width="60" height="100" as="geometry" />
        </mxCell>
        <mxCell id="1OdC3Qsrmz_PHcyCNAHJ-34" style="edgeStyle=orthogonalEdgeStyle;rounded=0;orthogonalLoop=1;jettySize=auto;html=1;" edge="1" parent="1">
          <mxGeometry relative="1" as="geometry">
            <mxPoint x="650" y="380" as="targetPoint" />
            <mxPoint x="550" y="412.85714285714266" as="sourcePoint" />
            <Array as="points">
              <mxPoint x="550" y="380" />
            </Array>
          </mxGeometry>
        </mxCell>
        <mxCell id="1OdC3Qsrmz_PHcyCNAHJ-21" style="edgeStyle=orthogonalEdgeStyle;rounded=0;orthogonalLoop=1;jettySize=auto;html=1;exitX=1;exitY=0;exitDx=0;exitDy=0;exitPerimeter=0;" edge="1" parent="1" source="1OdC3Qsrmz_PHcyCNAHJ-6">
          <mxGeometry relative="1" as="geometry">
            <mxPoint x="650" y="380" as="targetPoint" />
            <Array as="points">
              <mxPoint x="620" y="430" />
              <mxPoint x="550" y="430" />
              <mxPoint x="550" y="380" />
            </Array>
          </mxGeometry>
        </mxCell>
        <mxCell id="1OdC3Qsrmz_PHcyCNAHJ-6" value="" style="verticalLabelPosition=bottom;shadow=0;dashed=0;align=center;html=1;verticalAlign=top;shape=mxgraph.electrical.transistors.nmos;pointerEvents=1;" vertex="1" parent="1">
          <mxGeometry x="560" y="460" width="60" height="100" as="geometry" />
        </mxCell>
        <mxCell id="1OdC3Qsrmz_PHcyCNAHJ-20" style="edgeStyle=orthogonalEdgeStyle;rounded=0;orthogonalLoop=1;jettySize=auto;html=1;exitX=1;exitY=0;exitDx=0;exitDy=0;exitPerimeter=0;" edge="1" parent="1" source="1OdC3Qsrmz_PHcyCNAHJ-7">
          <mxGeometry relative="1" as="geometry">
            <mxPoint x="650" y="380" as="targetPoint" />
            <Array as="points">
              <mxPoint x="490" y="430" />
              <mxPoint x="550" y="430" />
              <mxPoint x="550" y="380" />
            </Array>
          </mxGeometry>
        </mxCell>
        <mxCell id="1OdC3Qsrmz_PHcyCNAHJ-7" value="" style="verticalLabelPosition=bottom;shadow=0;dashed=0;align=center;html=1;verticalAlign=top;shape=mxgraph.electrical.transistors.nmos;pointerEvents=1;" vertex="1" parent="1">
          <mxGeometry x="430" y="460" width="60" height="100" as="geometry" />
        </mxCell>
        <mxCell id="1OdC3Qsrmz_PHcyCNAHJ-11" style="edgeStyle=orthogonalEdgeStyle;rounded=0;orthogonalLoop=1;jettySize=auto;html=1;entryX=1;entryY=1;entryDx=0;entryDy=0;entryPerimeter=0;" edge="1" parent="1" source="1OdC3Qsrmz_PHcyCNAHJ-8" target="1OdC3Qsrmz_PHcyCNAHJ-3">
          <mxGeometry relative="1" as="geometry" />
        </mxCell>
        <mxCell id="1OdC3Qsrmz_PHcyCNAHJ-13" value="" style="edgeStyle=orthogonalEdgeStyle;rounded=0;orthogonalLoop=1;jettySize=auto;html=1;entryX=1;entryY=1;entryDx=0;entryDy=0;entryPerimeter=0;exitX=1;exitY=0;exitDx=0;exitDy=0;exitPerimeter=0;" edge="1" parent="1" source="1OdC3Qsrmz_PHcyCNAHJ-8" target="1OdC3Qsrmz_PHcyCNAHJ-2">
          <mxGeometry relative="1" as="geometry">
            <Array as="points">
              <mxPoint x="540" y="733" />
              <mxPoint x="540" y="705" />
              <mxPoint x="490" y="705" />
            </Array>
          </mxGeometry>
        </mxCell>
        <mxCell id="1OdC3Qsrmz_PHcyCNAHJ-22" value="" style="edgeStyle=orthogonalEdgeStyle;rounded=0;orthogonalLoop=1;jettySize=auto;html=1;exitX=1;exitY=1;exitDx=0;exitDy=0;exitPerimeter=0;" edge="1" parent="1" source="1OdC3Qsrmz_PHcyCNAHJ-8" target="1OdC3Qsrmz_PHcyCNAHJ-9">
          <mxGeometry relative="1" as="geometry" />
        </mxCell>
        <mxCell id="1OdC3Qsrmz_PHcyCNAHJ-8" value="" style="verticalLabelPosition=bottom;shadow=0;dashed=0;align=center;html=1;verticalAlign=top;shape=mxgraph.electrical.transistors.nmos;pointerEvents=1;" vertex="1" parent="1">
          <mxGeometry x="510" y="730" width="60" height="100" as="geometry" />
        </mxCell>
        <mxCell id="1OdC3Qsrmz_PHcyCNAHJ-9" value="" style="pointerEvents=1;verticalLabelPosition=bottom;shadow=0;dashed=0;align=center;html=1;verticalAlign=top;shape=mxgraph.electrical.signal_sources.signal_ground;" vertex="1" parent="1">
          <mxGeometry x="517.5" y="880" width="45" height="30" as="geometry" />
        </mxCell>
        <mxCell id="1OdC3Qsrmz_PHcyCNAHJ-25" style="edgeStyle=orthogonalEdgeStyle;rounded=0;orthogonalLoop=1;jettySize=auto;html=1;entryX=1;entryY=0;entryDx=0;entryDy=0;entryPerimeter=0;" edge="1" parent="1" source="1OdC3Qsrmz_PHcyCNAHJ-24" target="1OdC3Qsrmz_PHcyCNAHJ-4">
          <mxGeometry relative="1" as="geometry" />
        </mxCell>
        <mxCell id="1OdC3Qsrmz_PHcyCNAHJ-24" value="V&lt;sub&gt;dd&lt;/sub&gt;" style="verticalLabelPosition=top;verticalAlign=bottom;shape=mxgraph.electrical.signal_sources.vdd;shadow=0;dashed=0;align=center;strokeWidth=1;fontSize=24;html=1;flipV=1;" vertex="1" parent="1">
          <mxGeometry x="520" y="150" width="60" height="40" as="geometry" />
        </mxCell>
        <mxCell id="1OdC3Qsrmz_PHcyCNAHJ-33" style="edgeStyle=orthogonalEdgeStyle;rounded=0;orthogonalLoop=1;jettySize=auto;html=1;" edge="1" parent="1" source="1OdC3Qsrmz_PHcyCNAHJ-26">
          <mxGeometry relative="1" as="geometry">
            <mxPoint x="260" y="390" as="targetPoint" />
            <Array as="points">
              <mxPoint x="150" y="440" />
              <mxPoint x="150" y="440" />
            </Array>
          </mxGeometry>
        </mxCell>
        <mxCell id="1OdC3Qsrmz_PHcyCNAHJ-26" value="" style="verticalLabelPosition=bottom;shadow=0;dashed=0;align=center;html=1;verticalAlign=top;shape=mxgraph.electrical.transistors.nmos;pointerEvents=1;" vertex="1" parent="1">
          <mxGeometry x="90" y="450" width="60" height="100" as="geometry" />
        </mxCell>
        <mxCell id="1OdC3Qsrmz_PHcyCNAHJ-30" style="edgeStyle=orthogonalEdgeStyle;rounded=0;orthogonalLoop=1;jettySize=auto;html=1;entryX=1;entryY=1;entryDx=0;entryDy=0;entryPerimeter=0;" edge="1" parent="1" source="1OdC3Qsrmz_PHcyCNAHJ-27" target="1OdC3Qsrmz_PHcyCNAHJ-26">
          <mxGeometry relative="1" as="geometry">
            <Array as="points">
              <mxPoint x="150" y="580" />
              <mxPoint x="150" y="580" />
            </Array>
          </mxGeometry>
        </mxCell>
        <mxCell id="1OdC3Qsrmz_PHcyCNAHJ-27" value="" style="verticalLabelPosition=bottom;shadow=0;dashed=0;align=center;html=1;verticalAlign=top;shape=mxgraph.electrical.transistors.nmos;pointerEvents=1;" vertex="1" parent="1">
          <mxGeometry x="90" y="590" width="60" height="100" as="geometry" />
        </mxCell>
        <mxCell id="1OdC3Qsrmz_PHcyCNAHJ-29" style="edgeStyle=orthogonalEdgeStyle;rounded=0;orthogonalLoop=1;jettySize=auto;html=1;entryX=1;entryY=1;entryDx=0;entryDy=0;entryPerimeter=0;" edge="1" parent="1" source="1OdC3Qsrmz_PHcyCNAHJ-28" target="1OdC3Qsrmz_PHcyCNAHJ-27">
          <mxGeometry relative="1" as="geometry">
            <Array as="points">
              <mxPoint x="150" y="720" />
              <mxPoint x="150" y="720" />
            </Array>
          </mxGeometry>
        </mxCell>
        <mxCell id="1OdC3Qsrmz_PHcyCNAHJ-36" style="edgeStyle=orthogonalEdgeStyle;rounded=0;orthogonalLoop=1;jettySize=auto;html=1;entryX=0.5;entryY=0;entryDx=0;entryDy=0;entryPerimeter=0;" edge="1" parent="1" source="1OdC3Qsrmz_PHcyCNAHJ-28" target="1OdC3Qsrmz_PHcyCNAHJ-35">
          <mxGeometry relative="1" as="geometry">
            <Array as="points">
              <mxPoint x="150" y="854" />
              <mxPoint x="128" y="854" />
              <mxPoint x="128" y="880" />
            </Array>
          </mxGeometry>
        </mxCell>
        <mxCell id="1OdC3Qsrmz_PHcyCNAHJ-28" value="" style="verticalLabelPosition=bottom;shadow=0;dashed=0;align=center;html=1;verticalAlign=top;shape=mxgraph.electrical.transistors.nmos;pointerEvents=1;" vertex="1" parent="1">
          <mxGeometry x="90" y="730" width="60" height="100" as="geometry" />
        </mxCell>
        <mxCell id="1OdC3Qsrmz_PHcyCNAHJ-32" style="edgeStyle=orthogonalEdgeStyle;rounded=0;orthogonalLoop=1;jettySize=auto;html=1;" edge="1" parent="1" source="1OdC3Qsrmz_PHcyCNAHJ-31">
          <mxGeometry relative="1" as="geometry">
            <mxPoint x="260" y="390" as="targetPoint" />
            <Array as="points">
              <mxPoint x="150" y="390" />
              <mxPoint x="230" y="390" />
            </Array>
          </mxGeometry>
        </mxCell>
        <mxCell id="1OdC3Qsrmz_PHcyCNAHJ-38" style="edgeStyle=orthogonalEdgeStyle;rounded=0;orthogonalLoop=1;jettySize=auto;html=1;entryX=0.5;entryY=0;entryDx=0;entryDy=0;entryPerimeter=0;" edge="1" parent="1" source="1OdC3Qsrmz_PHcyCNAHJ-31" target="1OdC3Qsrmz_PHcyCNAHJ-37">
          <mxGeometry relative="1" as="geometry">
            <Array as="points">
              <mxPoint x="150" y="230" />
              <mxPoint x="150" y="230" />
            </Array>
          </mxGeometry>
        </mxCell>
        <mxCell id="1OdC3Qsrmz_PHcyCNAHJ-31" value="" style="verticalLabelPosition=bottom;shadow=0;dashed=0;align=center;html=1;verticalAlign=top;shape=mxgraph.electrical.transistors.pmos;pointerEvents=1;" vertex="1" parent="1">
          <mxGeometry x="90" y="240" width="60" height="100" as="geometry" />
        </mxCell>
        <mxCell id="1OdC3Qsrmz_PHcyCNAHJ-35" value="" style="pointerEvents=1;verticalLabelPosition=bottom;shadow=0;dashed=0;align=center;html=1;verticalAlign=top;shape=mxgraph.electrical.signal_sources.signal_ground;" vertex="1" parent="1">
          <mxGeometry x="105" y="880" width="45" height="30" as="geometry" />
        </mxCell>
        <mxCell id="1OdC3Qsrmz_PHcyCNAHJ-37" value="V&lt;sub&gt;dd&lt;/sub&gt;" style="verticalLabelPosition=top;verticalAlign=bottom;shape=mxgraph.electrical.signal_sources.vdd;shadow=0;dashed=0;align=center;strokeWidth=1;fontSize=24;html=1;flipV=1;" vertex="1" parent="1">
          <mxGeometry x="120" y="140" width="60" height="40" as="geometry" />
        </mxCell>
        <mxCell id="1OdC3Qsrmz_PHcyCNAHJ-39" value="&lt;div&gt;CLK&lt;/div&gt;" style="text;html=1;strokeColor=none;fillColor=none;align=center;verticalAlign=middle;whiteSpace=wrap;rounded=0;" vertex="1" parent="1">
          <mxGeometry x="40" y="275" width="60" height="30" as="geometry" />
        </mxCell>
        <mxCell id="1OdC3Qsrmz_PHcyCNAHJ-40" value="&lt;div&gt;CLK&lt;/div&gt;" style="text;html=1;strokeColor=none;fillColor=none;align=center;verticalAlign=middle;whiteSpace=wrap;rounded=0;" vertex="1" parent="1">
          <mxGeometry x="440" y="295" width="60" height="30" as="geometry" />
        </mxCell>
        <mxCell id="1OdC3Qsrmz_PHcyCNAHJ-41" value="&lt;div&gt;CLK&lt;/div&gt;" style="text;html=1;strokeColor=none;fillColor=none;align=center;verticalAlign=middle;whiteSpace=wrap;rounded=0;" vertex="1" parent="1">
          <mxGeometry x="460" y="765" width="60" height="30" as="geometry" />
        </mxCell>
        <mxCell id="1OdC3Qsrmz_PHcyCNAHJ-42" value="&lt;div&gt;CLK&lt;/div&gt;" style="text;html=1;strokeColor=none;fillColor=none;align=center;verticalAlign=middle;whiteSpace=wrap;rounded=0;" vertex="1" parent="1">
          <mxGeometry x="45" y="765" width="60" height="30" as="geometry" />
        </mxCell>
        <mxCell id="1OdC3Qsrmz_PHcyCNAHJ-43" value="&lt;div&gt;A&lt;br&gt;&lt;/div&gt;" style="text;html=1;strokeColor=none;fillColor=none;align=center;verticalAlign=middle;whiteSpace=wrap;rounded=0;" vertex="1" parent="1">
          <mxGeometry x="45" y="485" width="60" height="30" as="geometry" />
        </mxCell>
        <mxCell id="1OdC3Qsrmz_PHcyCNAHJ-44" value="B" style="text;html=1;strokeColor=none;fillColor=none;align=center;verticalAlign=middle;whiteSpace=wrap;rounded=0;" vertex="1" parent="1">
          <mxGeometry x="45" y="625" width="60" height="30" as="geometry" />
        </mxCell>
        <mxCell id="1OdC3Qsrmz_PHcyCNAHJ-45" value="&lt;div&gt;A&lt;br&gt;&lt;/div&gt;" style="text;html=1;strokeColor=none;fillColor=none;align=center;verticalAlign=middle;whiteSpace=wrap;rounded=0;" vertex="1" parent="1">
          <mxGeometry x="390" y="495" width="60" height="30" as="geometry" />
        </mxCell>
        <mxCell id="1OdC3Qsrmz_PHcyCNAHJ-46" value="&lt;div&gt;A_BAR&lt;br&gt;&lt;/div&gt;" style="text;html=1;strokeColor=none;fillColor=none;align=center;verticalAlign=middle;whiteSpace=wrap;rounded=0;" vertex="1" parent="1">
          <mxGeometry x="510" y="495" width="60" height="30" as="geometry" />
        </mxCell>
        <mxCell id="1OdC3Qsrmz_PHcyCNAHJ-47" value="B" style="text;html=1;strokeColor=none;fillColor=none;align=center;verticalAlign=middle;whiteSpace=wrap;rounded=0;" vertex="1" parent="1">
          <mxGeometry x="390" y="615" width="60" height="30" as="geometry" />
        </mxCell>
        <mxCell id="1OdC3Qsrmz_PHcyCNAHJ-48" value="&lt;div&gt;B_BAR&lt;/div&gt;" style="text;html=1;strokeColor=none;fillColor=none;align=center;verticalAlign=middle;whiteSpace=wrap;rounded=0;" vertex="1" parent="1">
          <mxGeometry x="510" y="615" width="60" height="30" as="geometry" />
        </mxCell>
        <mxCell id="1OdC3Qsrmz_PHcyCNAHJ-49" value="Sum" style="text;html=1;strokeColor=none;fillColor=none;align=center;verticalAlign=middle;whiteSpace=wrap;rounded=0;" vertex="1" parent="1">
          <mxGeometry x="200" y="360" width="60" height="30" as="geometry" />
        </mxCell>
        <mxCell id="1OdC3Qsrmz_PHcyCNAHJ-50" value="Cout" style="text;html=1;strokeColor=none;fillColor=none;align=center;verticalAlign=middle;whiteSpace=wrap;rounded=0;" vertex="1" parent="1">
          <mxGeometry x="590" y="350" width="60" height="30" as="geometry" />
        </mxCell>
      </root>
    </mxGraphModel>
  </diagram>
</mxfile>
